<?xml version="1.0" encoding="utf-8"?>
<!-- Generator: Adobe Illustrator 16.0.0, SVG Export Plug-In . SVG Version: 6.00 Build 0)  -->
<!DOCTYPE svg PUBLIC "-//W3C//DTD SVG 1.1//EN" "http://www.w3.org/Graphics/SVG/1.1/DTD/svg11.dtd">
<svg version="1.1" id="Layer_1" xmlns="http://www.w3.org/2000/svg" xmlns:xlink="http://www.w3.org/1999/xlink" x="0px" y="0px"
	 width="629px" height="85px" viewBox="0 0 629 85" enable-background="new 0 0 629 85" xml:space="preserve">
<g>
	<g>
		<path fill="#9F237C" d="M382.721,41.191c-7.301,30.336-35.332,24.985-45.096,23.792c48.258,16.773,59.035-36.958,59.035-36.958
			C392.1,35.404,388.412,38.566,382.721,41.191z"/>
		<path fill="#AF4F93" d="M379.91,20.107c-7.85,16.281-13.562,10.848-19.092,21.084c-5.507,10.189,6.334,18.576,6.334,18.576
			c-21.016-9.48-32.842-3.701-32.842-3.701c8.547,9.995,17.973,10.847,30.498,6.205c-3.171,0.295-17.578,1.291-22.381-2.984
			c4.246,2.092,13.283,2.27,19.21,1.523c4.034-0.508,6.794-0.469,6.794-0.469c-1.289-2.107-5.799-8.316,7.846-24.07
			c-3.111,3.83-9.135,17.101-5.973,22.078C387.287,46.11,379.91,20.107,379.91,20.107z"/>
		<g>
			<path fill="#410B35" d="M393.785,54.813c-0.367-0.4-1.006-0.337-1.404-0.122c-0.604,0.329-0.514,0.984-1.229,1.435v0.001
				c-3.232,1.529-6.818,2.373-10.193,2.699c-0.266,0.26-0.535,0.517-0.811,0.771c0.062-0.004,0.123-0.008,0.186-0.013
				c3.766-0.29,7.838-1.211,11.453-2.983c0.615-0.235,0.943,0.274,1.744-0.341C393.977,55.847,394.145,55.205,393.785,54.813z"/>
			<path fill="#410B35" d="M380.996,58.789c3.062-1.027,6.248-2.741,8.967-5.633h0.002c0.52-0.508,1.016-0.084,1.578-0.965
				c0.277-0.542,0.215-1.202-0.258-1.446c-0.48-0.252-1.059,0.025-1.361,0.363c-0.453,0.514-0.146,1.099-0.664,1.765
				c-2.174,2.248-4.65,3.741-7.111,4.736C381.775,58.008,381.393,58.401,380.996,58.789z"/>
		</g>
	</g>
	
		<text transform="matrix(1 0 0 1 106.5098 53.1514)" fill="#AF4F93" font-family="'IntriqueScriptPersonalUse'" font-size="73.9848">Menopausia</text>
	
		<text transform="matrix(1 0 0 1 395.6641 68.2275)" fill="#410B35" font-family="'IntriqueScriptPersonalUse'" font-size="73.9848">adolescencia</text>
	
		<text transform="matrix(0.9659 0 -0.2588 0.9659 13.3193 38.5981)" fill="#6E1B55" font-family="'Gravity-UltraLightItalic'" font-size="36" letter-spacing="2.071">Clínica</text>
	<text transform="matrix(0.9659 0 -0.2588 0.9659 44.0137 61.9824)" font-family="'Gravity-UltraLightItalic'" font-size="27.9525">de la</text>
</g>
</svg>
